# xmcd
#
# Track frame offsets:
#  150
#  29427
#  45537
#  71690
#  108943
#  149590
#  170645
#  205383
#  219916
#  251611
#  273863
#
# Disc length: 3998 seconds
#
# Revision: 1
# Processed by: cddbd v1.5.1PL0 Copyright (c) Steve Scherf et al.
# Submitted via: Collectorz.com_Music_Collector 6.9
#
DISCID=a50f9c0b
DTITLE=Mike Morgan and The Crawl - Live in Dallas
DYEAR=2003
DGENRE=Blues -  Blues Electric -  Blues Texas Style
TTITLE0=One Of A Kind
TTITLE1=Frankie's Blues
TTITLE2=Mother -In-Law Blues
TTITLE3=Cause I Love You
TTITLE4=Blues For Al And Peg
TTITLE5=You Know
TTITLE6=Twelve Year Old Boy
TTITLE7=The Wino Song (Part 1 And 2)
TTITLE8=Help Me
TTITLE9=Lonely Nights
TTITLE10=Shame, Shame, Shame
EXTD=
EXTT0=
EXTT1=
EXTT2=
EXTT3=
EXTT4=
EXTT5=
EXTT6=
EXTT7=
EXTT8=
EXTT9=
EXTT10=
PLAYORDER=
